<svg width="24" height="24" viewBox="0 0 24 24" fill="none" xmlns="http://www.w3.org/2000/svg">
<path d="M6 19.125H15.921C16.653 19.125 17.278 18.597 17.4 17.876L20.037 2.37599C20.16 1.65499 20.785 1.12799 21.516 1.12799H22.5" stroke="#282828" stroke-width="1.5" stroke-linecap="round" stroke-linejoin="round"/>
<path d="M7.875 21.375C8.082 21.375 8.25 21.543 8.25 21.75C8.25 21.957 8.082 22.125 7.875 22.125C7.668 22.125 7.5 21.957 7.5 21.75C7.5 21.543 7.668 21.375 7.875 21.375Z" fill="#282828" stroke="#282828" stroke-width="1.5" stroke-linecap="round" stroke-linejoin="round"/>
<path d="M15.375 21.375C15.582 21.375 15.75 21.543 15.75 21.75C15.75 21.957 15.582 22.125 15.375 22.125C15.168 22.125 15 21.957 15 21.75C15 21.543 15.168 21.375 15.375 21.375Z" fill="#282828" stroke="#282828" stroke-width="1.5" stroke-linecap="round" stroke-linejoin="round"/>
<path d="M17.9528 14.625H5.88176C4.50576 14.625 3.30576 13.688 2.97176 12.353L1.52176 6.553C1.42076 6.151 1.66576 5.744 2.06776 5.643C2.12776 5.628 2.18876 5.621 2.24976 5.621H19.4838" stroke="#282828" stroke-width="1.5" stroke-linecap="round" stroke-linejoin="round"/>
</svg>
