<svg width="96" height="96" viewBox="0 0 96 96" fill="none" xmlns="http://www.w3.org/2000/svg">
<path d="M58.5 27H40.5V12C40.5 7.028 44.528 3 49.5 3C54.472 3 58.5 7.028 58.5 12V27Z" stroke="#282828" stroke-width="2" stroke-linecap="round" stroke-linejoin="round"/>
<path d="M16.5 75V84L10.5 93L4.5 84V39C4.5 35.688 7.188 33 10.5 33C13.812 33 16.5 35.688 16.5 39V57" stroke="#282828" stroke-width="2" stroke-linecap="round" stroke-linejoin="round"/>
<path d="M4.5 75H22.5L58.5 27L87.388 69.02C89.684 72.364 88.936 76.924 85.692 79.356C82.352 81.864 77.612 81.188 75.108 77.848C75.072 77.8 75.036 77.752 75 77.7L48.424 40.436" stroke="#282828" stroke-width="2" stroke-linecap="round" stroke-linejoin="round"/>
<path d="M40.5 27L16.5 57" stroke="#282828" stroke-width="2" stroke-linecap="round" stroke-linejoin="round"/>
<path d="M85.6924 79.356L91.5004 87" stroke="#282828" stroke-width="2" stroke-linecap="round" stroke-linejoin="round"/>
<path d="M4.5 57H16.5" stroke="#282828" stroke-width="2" stroke-linecap="round" stroke-linejoin="round"/>
</svg>
