<svg width="96" height="96" viewBox="0 0 96 96" fill="none" xmlns="http://www.w3.org/2000/svg">
<path d="M91.6684 24.8L50.8324 3.68799C49.0564 2.77199 46.9444 2.77199 45.1684 3.68799L4.33238 24.8C3.12438 25.424 2.65238 26.912 3.27638 28.12C3.51238 28.572 3.88038 28.94 4.33238 29.176L45.1684 50.3C46.9444 51.216 49.0564 51.216 50.8324 50.3L91.6684 29.2C92.8764 28.576 93.3484 27.088 92.7244 25.88C92.4884 25.428 92.1204 25.06 91.6684 24.824V24.8Z" stroke="#282828" stroke-width="2" stroke-linecap="round" stroke-linejoin="round"/>
<path d="M20.4004 37.5L4.33238 45.812C3.12438 46.436 2.65238 47.924 3.27638 49.132C3.51238 49.584 3.88038 49.952 4.33238 50.188L45.1684 71.312C46.9444 72.228 49.0564 72.228 50.8324 71.312L91.6684 50.188C92.8764 49.564 93.3484 48.076 92.7244 46.868C92.4884 46.416 92.1204 46.048 91.6684 45.812L75.6004 37.5" stroke="#282828" stroke-width="2" stroke-linecap="round" stroke-linejoin="round"/>
<path d="M20.4004 58.5L4.33238 66.8C3.12438 67.424 2.65238 68.912 3.27638 70.12C3.51238 70.572 3.88038 70.94 4.33238 71.176L45.1684 92.3C46.9444 93.216 49.0564 93.216 50.8324 92.3L91.6684 71.2C92.8764 70.576 93.3484 69.088 92.7244 67.88C92.4884 67.428 92.1204 67.06 91.6684 66.824L75.6004 58.5" stroke="#282828" stroke-width="2" stroke-linecap="round" stroke-linejoin="round"/>
</svg>
