<svg width="24" height="24" viewBox="0 0 24 24" fill="none" xmlns="http://www.w3.org/2000/svg">
<path fill-rule="evenodd" clip-rule="evenodd" d="M0 2.5C0 2.08579 0.335786 1.75 0.75 1.75H23.25C23.6642 1.75 24 2.08579 24 2.5C24 2.91421 23.6642 3.25 23.25 3.25H0.75C0.335786 3.25 0 2.91421 0 2.5ZM0 12C0 11.5858 0.335786 11.25 0.75 11.25H23.25C23.6642 11.25 24 11.5858 24 12C24 12.4142 23.6642 12.75 23.25 12.75H0.75C0.335786 12.75 0 12.4142 0 12ZM0.75 20.75C0.335786 20.75 0 21.0858 0 21.5C0 21.9142 0.335786 22.25 0.75 22.25H23.25C23.6642 22.25 24 21.9142 24 21.5C24 21.0858 23.6642 20.75 23.25 20.75H0.75Z" fill="#282828"/>
</svg>
