<svg width="24" height="24" viewBox="0 0 24 24" fill="none" xmlns="http://www.w3.org/2000/svg">
<path fill-rule="evenodd" clip-rule="evenodd" d="M3 14C4.10457 14 5 13.1046 5 12C5 10.8954 4.10457 10 3 10C1.89543 10 1 10.8954 1 12C1 13.1046 1.89543 14 3 14ZM12 14C13.1046 14 14 13.1046 14 12C14 10.8954 13.1046 10 12 10C10.8954 10 10 10.8954 10 12C10 13.1046 10.8954 14 12 14ZM23 12C23 13.1046 22.1046 14 21 14C19.8954 14 19 13.1046 19 12C19 10.8954 19.8954 10 21 10C22.1046 10 23 10.8954 23 12Z" fill="#282828"/>
</svg>
