<svg width="24" height="24" viewBox="0 0 24 24" fill="none" xmlns="http://www.w3.org/2000/svg">
<path d="M12.1177 5.26869L14.1068 9.24569L17.9327 9.62869C18.1987 9.65469 18.3938 9.89169 18.3678 10.1577C18.3568 10.2697 18.3077 10.3737 18.2277 10.4527L15.0748 13.6047L16.2438 17.8877C16.3138 18.1467 16.1608 18.4127 15.9028 18.4827C15.7888 18.5137 15.6668 18.5017 15.5598 18.4487L11.6848 16.5107L7.80975 18.4507C7.57075 18.5697 7.27975 18.4727 7.16075 18.2337C7.10775 18.1267 7.09575 18.0047 7.12675 17.8897L8.29475 13.6047L5.14175 10.4507C4.95275 10.2617 4.95275 9.95569 5.14175 9.76669C5.22075 9.68769 5.32575 9.63769 5.43675 9.62669L9.26275 9.24369L11.2518 5.26669C11.3718 5.02769 11.6628 4.93169 11.9018 5.05169C11.9948 5.09869 12.0707 5.17469 12.1177 5.26869Z" stroke="#282828" stroke-width="1.5" stroke-linecap="round" stroke-linejoin="round"/>
</svg>
