<svg width="48" height="48" viewBox="0 0 48 48" fill="none" xmlns="http://www.w3.org/2000/svg">
<path d="M24.2355 10.5374L28.2135 18.4914L35.8655 19.2574C36.3975 19.3094 36.7875 19.7834 36.7355 20.3154C36.7135 20.5394 36.6155 20.7474 36.4555 20.9054L30.1495 27.2094L32.4875 35.7754C32.6275 36.2934 32.3215 36.8254 31.8055 36.9654C31.5775 37.0274 31.3335 37.0034 31.1195 36.8974L23.3695 33.0214L15.6195 36.9014C15.1415 37.1394 14.5595 36.9454 14.3215 36.4674C14.2155 36.2534 14.1915 36.0094 14.2535 35.7794L16.5895 27.2094L10.2835 20.9014C9.9055 20.5234 9.9055 19.9114 10.2835 19.5334C10.4415 19.3754 10.6515 19.2754 10.8735 19.2534L18.5255 18.4874L22.5035 10.5334C22.7435 10.0554 23.3255 9.86337 23.8035 10.1034C23.9895 10.1974 24.1415 10.3494 24.2355 10.5374Z" fill="#EEBA00"/>
</svg>
