<svg width="96" height="96" viewBox="0 0 96 96" fill="none" xmlns="http://www.w3.org/2000/svg">
<path d="M18.364 90.168C14.848 93.684 9.15202 93.684 5.63602 90.168C2.12002 86.652 2.12002 80.956 5.63602 77.44L31.092 52L43.82 64.728L18.364 90.168Z" stroke="#282828" stroke-width="2" stroke-linecap="round" stroke-linejoin="round"/>
<path d="M73.516 22.2879L37.4561 58.3479" stroke="#282828" stroke-width="2" stroke-linecap="round" stroke-linejoin="round"/>
<path d="M82.0004 22.288C79.6564 24.632 75.8564 24.628 73.5124 22.288C71.1684 19.944 71.1724 16.144 73.5124 13.8L84.1204 3.19997L92.6044 11.68L82.0004 22.288Z" stroke="#282828" stroke-width="2" stroke-linecap="round" stroke-linejoin="round"/>
<path d="M41.96 33.28L32.8 24.1C34.98 18.552 33.664 12.24 29.452 8.02398C27.04 5.62798 23.876 4.13198 20.492 3.79198C24 9.39598 22.3 16.784 16.692 20.292C12.812 22.72 7.884 22.724 4 20.296C4.856 28.472 12.176 34.408 20.352 33.552C21.704 33.412 23.032 33.084 24.292 32.584L30.596 38.888" stroke="#282828" stroke-width="2" stroke-linecap="round" stroke-linejoin="round"/>
<path d="M56.9482 65.2399L64.0482 72.3359C61.0202 80.0479 64.8202 88.7519 72.5322 91.7799C80.2442 94.8079 88.9482 91.0079 91.9762 83.2959C95.0042 75.5839 91.2042 66.8799 83.4922 63.8519C79.9682 62.4679 76.0562 62.4679 72.5322 63.8519L62.4882 53.8079" stroke="#282828" stroke-width="2" stroke-linecap="round" stroke-linejoin="round"/>
<path d="M76.94 76.744C77.524 76.156 78.476 76.156 79.06 76.744C79.648 77.328 79.648 78.28 79.06 78.864C78.476 79.452 77.524 79.452 76.94 78.864C76.356 78.28 76.356 77.328 76.94 76.744Z" fill="#282828" stroke="#282828" stroke-width="2" stroke-linecap="round" stroke-linejoin="round"/>
</svg>
